<?xml version="1.0" encoding="utf-8"?>
<!-- Svg Vector Icons : http://www.onlinewebfonts.com/icon -->
<!DOCTYPE svg PUBLIC "-//W3C//DTD SVG 1.1//EN" "http://www.w3.org/Graphics/SVG/1.1/DTD/svg11.dtd">
<svg version="1.1" xmlns="http://www.w3.org/2000/svg" xmlns:xlink="http://www.w3.org/1999/xlink" x="0px" y="0px" viewBox="0 0 1000 1000" enable-background="new 0 0 1000 1000" xml:space="preserve">
<metadata> Svg Vector Icons : http://www.onlinewebfonts.com/icon </metadata>
<g><g transform="translate(0.000000,511.000000) scale(0.100000,-0.100000)"><path d="M4141.8,3528.9C2400.2,3385.5,858.4,2166.4,312.9,501.7C174.6,76.5,118.3-264.1,102.9-758.4c-20.5-653.1,66.6-1173,299.7-1762c110.1-281.7,376.5-783.7,425.1-804.2c23-7.7,881,471.2,939.9,527.6c15.4,15.4-192.1,412.3-253.5,486.6c-5.1,5.1-87.1-38.4-184.4-94.8c-97.3-58.9-189.5-107.6-207.5-112.7c-69.2-17.9-271.5,576.3-348.3,1014.2c-58.9,348.3-76.8,320.1,199.8,327.8l235.6,7.7v281.7v281.7l-235.6,7.7c-181.8,5.1-238.2,15.4-238.2,41c0,20.5,23,166.5,51.2,327.8c48.7,281.7,140.9,591.6,253.5,858l58.9,130.6l130.6-76.8c74.3-41,169-99.9,212.6-125.5l81.9-48.7l82,146c46.1,81.9,110.1,194.6,143.4,253.5l61.5,105l-204.9,112.7c-112.7,61.5-204.9,122.9-204.9,133.2c-2.6,87.1,535.3,658.2,817,870.8l166.5,122.9l115.2-204.9c64-115.3,125.5-207.5,135.7-207.5c15.4,0,455.9,248.4,476.4,268.9c5.1,5.1-46.1,102.4-110.1,217.7c-66.6,112.7-117.8,212.6-112.7,215.1c25.6,23,338.1,143.4,525,202.3c222.8,71.7,609.5,146,747.8,146h82v-243.3v-243.3h281.7h281.7v245.9v248.4l194.6-17.9c228-20.5,578.8-107.6,881-217.7c320.1-117.8,307.3-94.8,169-338.1c-64-115.3-115.3-212.6-112.7-215.1c43.5-33.3,463.5-268.9,476.4-268.9c12.8,0,48.7,48.7,82,110.1c33.3,58.9,87.1,151.1,120.4,204.9l61.5,97.3l107.6-84.5c253.6-194.6,476.4-407.2,663.3-632.6c110.1-133.2,199.8-253.5,199.8-268.9s-92.2-79.4-202.3-143.4l-204.9-115.2l79.4-140.9c46.1-76.8,110.1-189.5,146-248.4l66.6-105l192.1,112.7c105,61.5,204.9,112.7,217.7,112.7c66.6,0,284.3-676.1,343.2-1068c43.5-286.8,61.5-263.8-215.1-263.8h-243.3v-294.5V-1181h245.9h245.9l-17.9-171.6c-33.3-320.1-258.7-1083.3-340.6-1165.3c-10.3-7.7-107.6,35.9-217.7,99.9c-110.1,64-202.3,112.7-207.5,107.6c-61.5-82-266.3-473.8-251-486.6c30.7-30.7,906.6-535.3,929.7-535.3c25.6,0,169.1,240.8,304.8,512.2c138.3,276.6,312.5,806.7,373.9,1139.7c74.3,394.4,66.6,1283.1-12.8,1651.9c-302.2,1411.2-1173,2530.4-2443.3,3137.4c-504.5,243.3-996.3,373.9-1572.5,422.6C4533.6,3559.7,4492.6,3559.7,4141.8,3528.9z" fill="#FFFFFF"/><path d="M9328,2235.6c-153.7-89.6-289.4-163.9-299.7-163.9c-7.7,0-53.8,64-97.3,140.9s-89.6,146-99.9,151.1c-20.5,12.8-274-899-256.1-916.9c20.5-17.9,904.1-243.3,914.3-233.1c5.1,5.1-25.6,71.7-69.2,148.5c-43.5,76.8-79.4,151.1-79.4,166.5c0,12.8,112.7,89.6,251,169c381.6,217.7,361.1,169,194.7,458.4c-76.8,135.7-148.6,248.4-158.8,245.9C9617.4,2402,9484.2,2327.8,9328,2235.6z" fill="#FFFFFF"/><path d="M5768.1,30.4l-998.8-397l-204.9,2.6c-245.9,2.6-363.7-51.2-486.6-222.8c-69.2-99.9-76.8-133.2-76.8-299.6c0-166.5,7.7-199.8,76.8-299.7c110.1-153.7,245.9-225.4,430.3-225.4c82,0,184.4,15.4,230.5,33.3c105,46.1,271.5,230.5,289.4,325.3c12.8,58.9,174.2,199.8,863.1,747.9c466.1,371.4,865.6,686.4,886.2,704.3c23,17.9,30.7,30.7,15.4,30.7C6779.7,430,6318.7,250.7,5768.1,30.4z" fill="#FFFFFF"/></g></g>
</svg>
