<?xml version="1.0" ?><svg height="24px" version="1.1" viewBox="0 0 24 24" width="24px" xmlns="http://www.w3.org/2000/svg" xmlns:sketch="http://www.bohemiancoding.com/sketch/ns" xmlns:xlink="http://www.w3.org/1999/xlink"><title/><desc/><defs/><g fill="none" fill-rule="evenodd" id="miu" stroke="none" stroke-width="1"><g id="Artboard-1" transform="translate(-215.000000, -551.000000)"><g id="slice" transform="translate(215.000000, 119.000000)"/><path d="M230.818182,554 L223.181818,554 C223.181818,554 221,554 221,556.105135 L221,571.894737 C221,573.982782 223.181818,574 223.181818,574 L230.818182,574 C230.818182,574 233,574 233,571.894737 L233,556.105135 C233,554 230.818182,554 230.818182,554 L230.818182,554 Z M230.888889,555.000105 L223.111111,555.000105 C223.111111,555.000105 222,554.967345 222,556.058922 L222,571.941183 C222,573 223.111111,573 223.111111,573 L230.888889,573 C230.888889,573 232,573 232,571.941183 L232,556.058922 C232,555.000105 230.888889,555.000105 230.888889,555.000105 L230.888889,555.000105 Z M224.970215,553.502686 L229,553.502686 C229,553.502686 229,552 228,552 L226,552 C225,552 225,553.502686 224.970215,553.502686 Z" fill="#FFFFFF" id="battery"/></g></g></svg>
